# xmcd CD database file
#
# Track frame offsets:
#	150
#	22949
#	45267
#	68012
#
# Disc length: 1201 seconds
#
# Revision: 0
# Processed by: cddbd v1.5PL3 Copyright (c) Steve Scherf et al.
# Submitted via: CDex 1.51
#
DISCID=2204af04
DTITLE=PENICILLIN - 四次元ダイバー - 少年ダイバー
DYEAR=2003
DGENRE=JPop
TTITLE0=四次元ダイバー
TTITLE1=少年ダイバー
TTITLE2=四次元ダイバー (Inst.)
TTITLE3=少年ダイバー (Inst.)
EXTD=YEAR: 2003
EXTT0=
EXTT1=
EXTT2=
EXTT3=
PLAYORDER=
